<svg xmlns="http://www.w3.org/2000/svg" version="1.1" xmlns:xlink="http://www.w3.org/1999/xlink" xmlns:svgjs="http://svgjs.dev/svgjs" width="500" height="500"><svg width="500" height="500" version="1.1" viewBox="0 0 132.29 132.29" xmlns="http://www.w3.org/2000/svg"><g transform="translate(-6.5782 -5.28)"><path transform="scale(.92804 1.0775)" d="m37.638 112.15h-10.984q-3.4235 0-2.2823-2.9955 4.5646-11.697 16.262-42.794 11.697-31.097 16.262-42.936 1.2838-2.9955 3.8514-2.9955h10.984q3.4235 0 2.2823 2.9955l-32.523 85.73q-1.1412 2.9955-3.8514 2.9955zm58.342 0h-10.984q-3.4235 0-2.2823-2.9955 4.5646-11.697 16.262-42.794 11.697-31.097 16.262-42.936 1.2838-2.9955 3.8514-2.9955h10.984q3.4235 0 2.2823 2.9955l-32.523 85.73q-1.1412 2.9955-3.8514 2.9955z" fill="#aade87" stroke-width="1.6716" aria-label="//"></path></g></svg><style>@media (prefers-color-scheme: light) { :root { filter: none; } }
@media (prefers-color-scheme: dark) { :root { filter: none; } }
</style></svg>