<svg width="420" height="100" version="1.1" viewBox="0 0 111.12 26.458" xmlns="http://www.w3.org/2000/svg"><g transform="translate(-6.5782 -5.28)"><g transform="translate(-75.683 -66.202)"><g stroke-width=".26458" aria-label="syntactìcal"><path d="m110.05 90.055h-3.5165q-0.27658 0-0.27658-0.27658v-0.69145q0-0.25682 0.27658-0.25682h3.3189q1.5409 0 1.5409-1.1458v-0.37536q0-1.047-1.0075-1.4422l-2.3312-0.98778q-1.0075-0.41487-1.4422-0.96802-0.43463-0.57291-0.43463-1.5014 0-2.4299 2.667-2.4299h3.2399q0.27658 0 0.27658 0.27658v0.69145q0 0.25682-0.27658 0.25682h-2.9831q-0.7112 0-1.0866 0.29633-0.35561 0.29633-0.35561 0.69145v0.33584q0 0.82974 1.1261 1.2644l2.3312 1.047q1.0273 0.39511 1.3829 1.047 0.37535 0.65194 0.37535 1.7978 0 2.3707-2.825 2.3707zm5.9464 3.1016h-0.86925q-0.27658 0-0.27658-0.27658v-0.73096q0-0.27658 0.27658-0.27658h0.49389q1.2644 0 1.778-0.7112 0.41486-0.57291 0.75071-1.6397h-0.57291q-0.23707 0-0.33585-0.27658l-2.9041-8.9888q-0.079-0.27658 0.19755-0.27658h0.94827q0.25683 0 0.33585 0.27658l2.5485 8.1393h0.079l2.5485-8.1393q0.0593-0.27658 0.31609-0.27658h0.90875q0.33585 0 0.23707 0.29633l-2.9436 9.3839q-0.49389 1.6792-1.2644 2.588-0.75072 0.90876-2.2521 0.90876zm9.5024-3.1016h-0.889q-0.27658 0-0.27658-0.27658v-9.5222q0-0.27658 0.27658-0.27658h0.889q0.27658 0 0.27658 0.27658v0.77047h0.079q0.49389-1.047 2.0151-1.047h1.1063q1.3434 0 2.0941 0.77047 0.75071 0.77047 0.75071 2.1534v6.8749q0 0.27658-0.27658 0.27658h-0.889q-0.27658 0-0.27658-0.27658v-6.8157q0-1.7187-1.6595-1.7187h-1.1063q-0.889 0-1.3631 0.47414-0.47413 0.47413-0.47413 1.3434v6.7169q0 0.27658-0.27658 0.27658zm9.3246-8.811h-1.0866q-0.27658 0-0.27658-0.25682v-0.73096q0-0.27658 0.27658-0.27658h1.0866q0.19756 0 0.19756-0.1778v-1.699q0-0.27658 0.27658-0.27658h0.889q0.25682 0 0.25682 0.27658v1.699q0 0.1778 0.21732 0.1778h2.0941q0.29633 0 0.29633 0.27658v0.73096q0 0.25682-0.29633 0.25682h-2.0941q-0.21732 0-0.21732 0.1778v5.6896q0 1.6792 1.7385 1.6792h0.77046q0.29634 0 0.29634 0.27658v0.73096q0 0.25682-0.29634 0.25682h-0.94826q-1.3631 0-2.1731-0.75071-0.80998-0.77047-0.80998-2.1336v-5.7489q0-0.1778-0.19756-0.1778zm10.273 8.811h-1.0273q-1.3631 0-2.1534-0.77047-0.77047-0.77047-0.77047-2.1534v-4.2277q0-1.3829 0.77047-2.1534 0.79023-0.77047 2.1534-0.77047h4.287q0.27658 0 0.27658 0.27658v9.5222q0 0.27658-0.27658 0.27658h-0.889q-0.27658 0-0.27658-0.27658v-0.77047h-0.079q-0.49389 1.047-2.0151 1.047zm2.0941-3.0819v-5.5513q0-0.1778-0.19756-0.1778h-2.7658q-1.6397 0-1.6397 1.7187v4.1092q0 1.7187 1.6397 1.7187h1.1261q0.889 0 1.3631-0.47413 0.47414-0.47413 0.47414-1.3434zm10.036 2.0941v0.73096q0 0.25682-0.27657 0.25682h-2.8646q-1.3631 0-2.1534-0.77047-0.77047-0.77047-0.77047-2.1534v-4.2277q0-1.3829 0.77047-2.1534 0.79023-0.77047 2.1534-0.77047h2.8646q0.27657 0 0.27657 0.27658v0.73096q0 0.25682-0.27657 0.25682h-2.7065q-1.6397 0-1.6397 1.7187v4.1092q0 1.7187 1.6397 1.7187h2.7065q0.27657 0 0.27657 0.27658zm2.3904-7.8232h-1.0866q-0.27658 0-0.27658-0.25682v-0.73096q0-0.27658 0.27658-0.27658h1.0866q0.19755 0 0.19755-0.1778v-1.699q0-0.27658 0.27658-0.27658h0.889q0.25682 0 0.25682 0.27658v1.699q0 0.1778 0.21732 0.1778h2.0941q0.29633 0 0.29633 0.27658v0.73096q0 0.25682-0.29633 0.25682h-2.0941q-0.21732 0-0.21732 0.1778v5.6896q0 1.6792 1.7385 1.6792h0.77047q0.29633 0 0.29633 0.27658v0.73096q0 0.25682-0.29633 0.25682h-0.94827q-1.3631 0-2.1731-0.75071-0.80998-0.77047-0.80998-2.1336v-5.7489q0-0.1778-0.19755-0.1778z"/><path d="m167.56 78.715h-0.94826q-0.27658 0-0.45438-0.23707l-1.6595-1.9756q-0.0988-0.15804-0.0395-0.23707 0.0395-0.09878 0.19756-0.09878h1.5409q0.3556 0 0.49389 0.31609l1.0273 1.8965q0.15804 0.33584-0.15805 0.33584zm-1.4224 11.004v-9.4037q0-0.33584 0.31609-0.33584h1.2644q0.33584 0 0.33584 0.33584v9.4037q0 0.19756-0.079 0.27658-0.0593 0.05927-0.23707 0.05927h-1.2644q-0.33585 0-0.33585-0.33584z" fill="#aade87"/><path d="m176.61 89.067v0.73096q0 0.25682-0.27658 0.25682h-2.8646q-1.3631 0-2.1534-0.77047-0.77047-0.77047-0.77047-2.1534v-4.2277q0-1.3829 0.77047-2.1534 0.79022-0.77047 2.1534-0.77047h2.8646q0.27658 0 0.27658 0.27658v0.73096q0 0.25682-0.27658 0.25682h-2.7065q-1.6397 0-1.6397 1.7187v4.1092q0 1.7187 1.6397 1.7187h2.7065q0.27658 0 0.27658 0.27658zm5.7686 0.98778h-1.0273q-1.3631 0-2.1534-0.77047-0.77047-0.77047-0.77047-2.1534v-4.2277q0-1.3829 0.77047-2.1534 0.79023-0.77047 2.1534-0.77047h4.287q0.27658 0 0.27658 0.27658v9.5222q0 0.27658-0.27658 0.27658h-0.889q-0.27658 0-0.27658-0.27658v-0.77047h-0.079q-0.49389 1.047-2.0151 1.047zm2.0941-3.0819v-5.5513q0-0.1778-0.19756-0.1778h-2.7658q-1.6397 0-1.6397 1.7187v4.1092q0 1.7187 1.6397 1.7187h1.1261q0.889 0 1.3631-0.47413 0.47414-0.47413 0.47414-1.3434zm5.4328 3.0819h-0.889q-0.27658 0-0.27658-0.27658v-13.335q0-0.27658 0.27658-0.27658h0.889q0.27658 0 0.27658 0.27658v13.335q0 0.27658-0.27658 0.27658z"/></g><text transform="scale(.80419 1.2435)" x="105.45878" y="77.150452" fill="#aade87" font-family="Rajdhani" font-size="28.075px" font-weight="bold" stroke-width=".329" style="font-variant-caps:normal;font-variant-east-asian:normal;font-variant-ligatures:normal;font-variant-numeric:normal" xml:space="preserve"><tspan x="105.45878" y="77.150452" fill="#aade87" font-family="Rajdhani" font-size="28.075px" font-weight="bold" stroke-width=".329" style="font-variant-caps:normal;font-variant-east-asian:normal;font-variant-ligatures:normal;font-variant-numeric:normal">//</tspan></text></g></g></svg>
